<?xml version="1.0" standalone="no"?>
<!DOCTYPE svg PUBLIC "-//W3C//DTD SVG 20010904//EN"
 "http://www.w3.org/TR/2001/REC-SVG-20010904/DTD/svg10.dtd">
<svg version="1.0" xmlns="http://www.w3.org/2000/svg"
 width="2048.000000pt" height="2048.000000pt" viewBox="0 0 2048.000000 2048.000000"
 preserveAspectRatio="xMidYMid meet">
<metadata>
Created by potrace 1.14, written by Peter Selinger 2001-2017
</metadata>
<g transform="translate(0.000000,2048.000000) scale(0.100000,-0.100000)"
fill="#000000" stroke="none">
<path d="M10043 19824 c5 -8 -22 -11 -94 -10 -56 0 -103 -2 -106 -7 -2 -4 -13
-2 -24 3 -14 8 -19 7 -19 -1 0 -8 -4 -8 -15 1 -8 7 -15 8 -15 3 0 -4 -30 -9
-67 -10 -38 -1 -108 -5 -158 -8 -49 -4 -99 -8 -110 -9 -11 -1 -26 -5 -32 -9
-7 -5 -13 -4 -13 2 0 7 -9 8 -22 3 -13 -5 -38 -8 -55 -7 -18 1 -33 -1 -33 -4
0 -3 -26 -6 -58 -6 -31 1 -61 -1 -66 -4 -5 -2 -26 -6 -45 -8 -51 -4 -69 -8
-77 -16 -4 -4 -14 -2 -21 5 -9 7 -17 8 -21 2 -4 -5 -23 -10 -42 -12 -47 -3
-63 -6 -77 -15 -8 -5 -13 -3 -13 3 0 6 -4 9 -8 6 -10 -6 -62 -16 -107 -21 -16
-2 -30 -4 -30 -5 0 -1 -18 -4 -40 -6 -22 -3 -43 -10 -47 -17 -6 -9 -8 -9 -8 1
0 7 -4 10 -10 7 -12 -7 -45 -14 -82 -17 -16 -1 -28 -7 -28 -13 0 -6 -3 -7 -8
0 -8 12 -44 16 -37 5 3 -4 -2 -10 -10 -14 -8 -3 -15 0 -15 7 0 8 -3 9 -8 1 -4
-6 -14 -11 -22 -11 -8 0 -34 -5 -57 -12 -23 -6 -45 -11 -50 -10 -4 1 -11 0
-15 -1 -5 -1 -12 -4 -18 -5 -5 -1 -11 -4 -12 -5 -2 -1 -16 -3 -33 -5 -16 -1
-37 -5 -45 -8 -33 -12 -104 -26 -112 -21 -4 3 -8 0 -8 -7 0 -7 -3 -9 -7 -6 -3
4 -13 1 -21 -6 -13 -10 -14 -9 -8 1 7 11 4 12 -11 3 -11 -6 -23 -7 -27 -4 -3
3 -6 1 -6 -5 0 -6 -9 -9 -20 -7 -11 2 -20 0 -20 -5 0 -5 -9 -7 -20 -5 -11 2
-20 -1 -20 -7 0 -6 -3 -8 -7 -5 -3 4 -13 1 -21 -6 -13 -10 -14 -9 -8 1 7 11 4
12 -11 3 -11 -6 -23 -7 -27 -4 -3 3 -6 1 -6 -6 0 -7 -7 -11 -15 -8 -8 4 -17 2
-20 -3 -3 -5 -12 -7 -20 -3 -8 3 -15 0 -15 -5 0 -6 -9 -9 -20 -7 -11 2 -20 -1
-20 -6 0 -6 -5 -7 -11 -3 -6 3 -15 0 -20 -7 -7 -12 -9 -11 -9 1 0 11 -2 12 -8
3 -4 -7 -18 -14 -30 -16 -12 -2 -25 -6 -28 -10 -12 -12 -26 -8 -19 6 4 6 0 4
-8 -5 -8 -10 -17 -15 -21 -11 -4 4 -11 1 -16 -7 -9 -13 -10 -13 -10 0 0 11 -2
12 -8 2 -5 -7 -17 -14 -28 -17 -74 -16 -124 -31 -124 -37 0 -4 -7 -5 -15 -2
-8 4 -15 1 -15 -6 0 -6 -5 -8 -10 -5 -6 4 -16 2 -23 -3 -7 -5 -23 -12 -37 -15
-14 -3 -36 -8 -50 -12 -14 -4 -31 -7 -37 -7 -7 -1 -13 -5 -13 -10 0 -5 -4 -7
-9 -3 -5 3 -12 1 -16 -5 -4 -6 -10 -8 -15 -5 -5 3 -11 1 -15 -5 -3 -5 -12 -10
-20 -10 -8 0 -26 -5 -42 -12 -15 -6 -38 -12 -51 -13 -13 0 -26 -5 -30 -11 -10
-14 -57 -33 -89 -36 -7 -1 -13 -5 -13 -10 0 -4 -3 -7 -7 -6 -5 1 -21 -5 -38
-12 -16 -7 -38 -12 -49 -11 -11 2 -16 -2 -12 -8 4 -6 -1 -11 -11 -11 -10 0
-29 -7 -41 -16 -12 -8 -26 -13 -31 -9 -5 3 -13 0 -16 -6 -4 -5 -14 -8 -22 -5
-8 3 -11 1 -8 -4 3 -6 -1 -10 -9 -10 -9 0 -16 -6 -16 -12 0 -10 -2 -10 -9 0
-6 10 -10 10 -21 -2 -7 -9 -16 -13 -21 -10 -5 3 -9 0 -9 -7 0 -7 -3 -9 -7 -6
-3 4 -17 0 -30 -8 -13 -9 -23 -12 -23 -9 0 4 -8 0 -17 -8 -10 -8 -28 -14 -40
-13 -12 1 -20 -2 -18 -6 3 -4 -18 -15 -45 -25 -28 -10 -50 -22 -50 -26 0 -4
-9 -8 -20 -8 -11 0 -20 -4 -20 -10 0 -5 -3 -9 -7 -9 -5 1 -11 0 -15 -1 -5 -1
-11 -4 -15 -5 -34 -11 -73 -31 -73 -38 0 -4 -4 -5 -10 -2 -5 3 -10 1 -10 -6 0
-7 -3 -10 -6 -6 -4 3 -27 -5 -51 -19 -25 -14 -48 -23 -51 -20 -3 3 -13 -4 -23
-15 -9 -11 -19 -19 -21 -17 -4 3 -90 -34 -98 -42 -3 -3 -40 -23 -82 -44 -43
-21 -78 -42 -78 -48 0 -6 -7 -5 -17 3 -10 7 -15 9 -10 4 8 -10 -43 -46 -55
-39 -4 3 -8 -2 -8 -10 0 -10 -6 -13 -15 -10 -8 4 -15 1 -15 -6 0 -6 -4 -9 -9
-5 -6 3 -14 -3 -20 -12 -6 -10 -11 -14 -11 -10 0 5 -13 -1 -29 -12 -15 -11
-31 -18 -35 -14 -3 3 -6 1 -6 -5 0 -7 -7 -12 -15 -12 -8 0 -15 -5 -15 -11 0
-5 -4 -7 -10 -4 -5 3 -10 1 -10 -4 0 -6 -7 -11 -15 -11 -8 0 -15 -4 -15 -10 0
-5 -3 -9 -7 -9 -19 3 -36 -2 -30 -8 7 -6 -45 -34 -68 -38 -5 0 -9 -7 -7 -14 1
-7 -2 -10 -7 -7 -5 4 -12 2 -16 -4 -4 -6 -11 -8 -16 -5 -5 4 -9 2 -9 -4 0 -6
-16 -18 -35 -27 -19 -9 -35 -21 -35 -26 0 -5 -4 -7 -9 -4 -4 3 -16 -3 -26 -14
-10 -11 -23 -20 -30 -20 -7 0 -20 -9 -30 -20 -10 -11 -26 -20 -37 -20 -10 0
-18 -3 -18 -7 0 -5 -12 -17 -27 -27 -17 -13 -24 -14 -19 -5 4 8 1 6 -7 -3 -8
-10 -17 -15 -20 -12 -3 3 -10 -4 -17 -15 -6 -12 -15 -19 -21 -16 -5 4 -9 1 -9
-6 0 -7 -3 -9 -7 -6 -3 4 -13 -2 -20 -13 -8 -11 -18 -18 -23 -15 -4 3 -10 -2
-14 -10 -3 -8 -15 -15 -26 -15 -12 0 -18 -4 -15 -10 3 -5 0 -10 -9 -10 -8 0
-16 -3 -18 -7 -5 -12 -78 -65 -78 -57 0 4 -9 -3 -20 -16 -11 -13 -20 -20 -20
-17 0 3 -12 -5 -26 -18 -14 -13 -39 -30 -54 -37 -16 -7 -26 -16 -24 -20 3 -4
-1 -8 -8 -8 -8 0 -21 -8 -30 -17 -26 -28 -46 -43 -58 -43 -6 0 -8 -4 -5 -10 3
-5 -3 -10 -14 -10 -12 0 -21 -5 -21 -10 0 -6 -11 -16 -25 -22 -14 -6 -25 -18
-25 -25 0 -8 -5 -11 -10 -8 -6 3 -13 -1 -16 -9 -3 -9 -10 -13 -15 -10 -5 3
-12 -2 -15 -10 -3 -9 -13 -16 -21 -16 -8 0 -11 -4 -8 -10 3 -5 -1 -10 -9 -10
-9 0 -16 -4 -16 -10 0 -5 -7 -10 -16 -10 -8 0 -12 -4 -9 -10 6 -9 -8 -14 -27
-11 -5 0 -8 -6 -8 -14 0 -8 -7 -15 -15 -15 -8 0 -15 -7 -15 -16 0 -8 -4 -13
-9 -9 -6 3 -14 -3 -20 -12 -6 -10 -11 -14 -11 -10 0 4 -14 -6 -30 -23 -17 -17
-35 -28 -42 -24 -6 4 -8 3 -5 -3 4 -6 -9 -24 -29 -39 -19 -16 -46 -39 -59 -51
-13 -13 -29 -23 -35 -23 -5 0 -10 -7 -10 -17 0 -9 -2 -14 -5 -11 -3 3 -28 -16
-55 -41 -28 -25 -70 -64 -94 -86 -24 -22 -42 -43 -39 -48 2 -4 1 -7 -4 -6 -19
3 -34 -2 -29 -10 6 -9 -22 -26 -36 -23 -4 1 -5 -5 -2 -13 4 -8 2 -15 -3 -15
-14 0 -63 -47 -63 -60 0 -5 -3 -9 -7 -8 -5 1 -32 -21 -60 -50 -29 -28 -57 -52
-62 -52 -6 0 -8 -7 -5 -15 4 -10 0 -15 -15 -15 -12 0 -20 -4 -19 -9 2 -5 -9
-20 -24 -34 -16 -14 -28 -31 -28 -37 0 -5 -3 -9 -7 -8 -5 2 -18 -7 -31 -19
-12 -13 -20 -23 -17 -23 2 0 -19 -24 -48 -54 -88 -90 -167 -179 -167 -188 0
-5 -4 -6 -10 -3 -5 3 -10 1 -10 -6 0 -6 -12 -23 -27 -37 -16 -14 -27 -28 -27
-31 1 -3 -2 -5 -7 -3 -5 1 -9 -5 -9 -13 0 -8 -4 -15 -10 -15 -5 0 -10 -6 -10
-14 0 -8 -5 -18 -12 -22 -7 -4 -8 -3 -4 4 4 7 5 12 2 12 -3 0 -13 -14 -21 -30
-9 -18 -21 -28 -27 -24 -7 4 -8 3 -4 -4 4 -7 2 -12 -4 -12 -6 0 -9 -4 -6 -8 3
-5 -3 -15 -12 -23 -9 -8 -28 -29 -42 -46 -13 -17 -28 -29 -32 -27 -4 3 -5 -2
-2 -10 4 -11 0 -16 -11 -16 -9 0 -15 -5 -13 -12 2 -6 -13 -29 -34 -50 -21 -21
-37 -39 -36 -40 5 -9 -29 -48 -42 -48 -12 0 -13 -2 -1 -9 11 -7 9 -10 -8 -16
-11 -3 -21 -12 -21 -19 0 -7 -10 -23 -22 -36 -13 -14 -23 -27 -23 -30 0 -5
-28 -39 -52 -65 -7 -7 -10 -15 -7 -18 3 -3 -4 -10 -15 -17 -12 -6 -21 -17 -21
-26 0 -8 -7 -17 -15 -20 -8 -4 -13 -9 -10 -13 2 -4 -9 -22 -24 -39 -16 -17
-26 -33 -23 -36 3 -3 0 -6 -6 -6 -7 0 -12 -9 -12 -21 0 -11 -4 -18 -9 -14 -5
3 -12 -4 -16 -15 -3 -11 -11 -20 -17 -20 -6 0 -9 -3 -5 -6 3 -4 1 -12 -6 -20
-29 -33 -37 -44 -37 -54 0 -5 -5 -10 -12 -10 -6 0 -8 -3 -5 -7 4 -3 -1 -12
-11 -20 -11 -10 -12 -12 -2 -8 8 3 5 -2 -8 -11 -12 -9 -22 -21 -22 -26 0 -11
-42 -72 -53 -76 -4 -2 -5 -8 -1 -13 3 -5 0 -9 -5 -9 -6 0 -11 -6 -11 -14 0 -8
-4 -16 -9 -18 -5 -1 -11 -9 -13 -17 -2 -8 -10 -22 -18 -32 -32 -38 -40 -49
-40 -54 1 -22 -1 -25 -12 -19 -6 4 -8 3 -4 -4 3 -6 0 -17 -8 -24 -7 -8 -17
-24 -20 -36 -4 -12 -12 -22 -17 -22 -5 0 -8 -6 -7 -12 2 -7 -2 -12 -9 -11 -7
2 -10 -4 -7 -12 4 -8 1 -15 -5 -15 -6 0 -10 -6 -9 -12 2 -7 -2 -12 -9 -11 -7
2 -10 -4 -7 -12 4 -8 1 -15 -6 -15 -7 0 -10 -6 -7 -14 3 -8 -1 -17 -9 -20 -9
-3 -13 -10 -10 -15 3 -5 -1 -12 -10 -15 -8 -3 -12 -10 -9 -16 3 -5 2 -10 -3
-10 -6 0 -13 -11 -16 -25 -4 -17 -11 -23 -19 -19 -7 4 -9 4 -5 -1 4 -4 2 -17
-4 -29 -7 -11 -11 -24 -10 -28 1 -5 -3 -8 -9 -8 -6 0 -8 -7 -5 -17 4 -10 4
-14 0 -10 -8 8 -33 -22 -34 -41 0 -8 -9 -27 -21 -43 -11 -16 -17 -29 -12 -29
4 0 0 -5 -9 -11 -11 -6 -15 -16 -11 -26 4 -10 2 -14 -4 -10 -7 4 -14 -5 -18
-23 -4 -16 -13 -33 -20 -37 -13 -8 -15 -12 -15 -32 0 -5 -7 -17 -16 -25 -12
-12 -12 -16 -2 -16 8 0 6 -5 -5 -11 -9 -6 -15 -14 -13 -18 3 -4 -4 -18 -14
-29 -11 -12 -19 -25 -19 -29 4 -16 -28 -73 -36 -66 -4 5 -6 1 -2 -8 3 -9 -1
-26 -9 -38 -8 -11 -12 -21 -7 -21 4 0 2 -4 -6 -9 -8 -5 -16 -20 -18 -32 -2
-13 -7 -26 -12 -29 -8 -5 -24 -45 -26 -65 0 -5 -5 -9 -11 -8 -5 1 -11 -7 -12
-18 -4 -42 -6 -49 -13 -49 -7 0 -22 -39 -20 -52 1 -5 -4 -8 -10 -8 -5 0 -8 -4
-4 -9 3 -5 1 -12 -5 -16 -5 -3 -10 -15 -10 -26 0 -10 -5 -19 -11 -19 -5 0 -7
-4 -4 -10 3 -5 2 -10 -4 -10 -6 0 -8 -7 -5 -15 4 -9 -1 -18 -11 -21 -13 -5
-14 -9 -3 -15 10 -7 10 -9 -2 -9 -9 0 -17 -9 -18 -20 -4 -43 -6 -50 -12 -50
-6 0 -16 -33 -20 -68 -1 -4 -7 -10 -15 -15 -7 -4 -12 -15 -11 -25 2 -9 -1 -20
-6 -23 -5 -3 -10 -16 -13 -28 -2 -13 -9 -29 -15 -37 -7 -7 -9 -18 -6 -23 4 -5
1 -13 -5 -16 -5 -4 -8 -14 -5 -22 3 -8 2 -12 -2 -9 -8 5 -38 -82 -34 -96 1 -5
-2 -8 -8 -8 -6 0 -9 -3 -9 -7 1 -5 0 -11 -1 -15 -1 -5 -3 -11 -5 -15 -1 -5 -5
-16 -8 -25 -4 -10 -10 -26 -14 -35 -3 -10 -7 -21 -8 -25 -2 -5 -4 -11 -5 -15
-1 -5 -2 -11 -1 -15 0 -4 -8 -24 -19 -44 -11 -19 -15 -32 -8 -28 10 6 11 5 1
-8 -7 -8 -10 -18 -6 -21 3 -4 2 -7 -4 -7 -5 0 -10 -6 -11 -12 -1 -20 -8 -49
-28 -108 -10 -30 -17 -58 -16 -62 1 -5 -6 -8 -15 -8 -10 0 -14 -4 -8 -8 13 -9
16 -42 4 -42 -5 0 -9 -12 -9 -26 0 -14 -4 -23 -9 -20 -4 3 -7 -6 -5 -19 1 -14
-3 -25 -9 -25 -5 0 -7 -3 -4 -7 4 -3 1 -13 -6 -21 -10 -13 -9 -14 2 -7 11 6
12 5 5 -6 -5 -8 -9 -17 -10 -21 -1 -5 -2 -9 -4 -10 -3 -5 -12 -43 -13 -60 -1
-10 -5 -18 -9 -18 -4 0 -5 -7 -2 -15 4 -8 1 -15 -4 -15 -6 0 -9 -9 -7 -20 2
-11 0 -20 -5 -20 -5 0 -7 -9 -5 -20 2 -11 0 -20 -5 -20 -5 0 -7 -9 -5 -20 2
-11 0 -20 -5 -20 -4 0 -7 -8 -5 -17 1 -10 -1 -22 -5 -28 -13 -16 -15 -49 -6
-64 6 -9 5 -12 -2 -7 -7 4 -13 -7 -17 -31 -4 -21 -10 -47 -13 -58 -3 -11 -7
-23 -8 -27 -1 -5 -2 -9 -4 -10 -2 -3 -7 -44 -12 -90 -1 -10 -5 -18 -9 -18 -3
0 -5 -13 -4 -30 1 -16 -2 -30 -7 -30 -5 0 -6 -4 -3 -10 3 -5 0 -10 -7 -10 -9
0 -9 -3 2 -10 8 -5 10 -10 3 -10 -6 0 -10 -11 -8 -25 1 -14 -1 -28 -6 -31 -4
-2 -6 -11 -2 -19 3 -9 -1 -15 -8 -15 -11 0 -11 -3 1 -10 11 -7 11 -10 2 -10
-7 0 -10 -4 -7 -10 3 -5 1 -19 -5 -30 -8 -15 -8 -20 2 -20 8 0 9 -3 3 -8 -5
-4 -12 -18 -14 -32 -2 -14 -5 -32 -6 -40 -2 -8 -4 -25 -4 -38 -1 -13 -4 -21
-8 -19 -5 3 -7 -11 -7 -31 1 -21 -4 -43 -10 -51 -9 -12 -8 -13 4 -6 12 7 13 6
4 -6 -6 -8 -12 -32 -13 -54 -1 -21 -7 -46 -14 -54 -9 -12 -9 -13 1 -7 15 9 15
1 2 -25 -8 -14 -7 -19 2 -19 10 0 10 -2 1 -8 -7 -4 -14 -33 -15 -65 -2 -31 -5
-57 -8 -57 -10 0 -6 -45 4 -52 7 -5 6 -8 -3 -8 -7 0 -11 -6 -8 -15 4 -8 2 -17
-4 -21 -6 -4 -5 -12 3 -22 11 -13 11 -14 -1 -7 -11 6 -13 3 -9 -12 3 -12 2
-27 -3 -34 -4 -7 -4 -20 1 -30 5 -9 6 -19 3 -23 -8 -8 -11 -23 -17 -109 -2
-38 -7 -71 -10 -74 -3 -3 -1 -15 5 -26 6 -10 7 -17 1 -14 -5 4 -10 -18 -11
-51 -5 -147 -9 -201 -16 -211 -3 -6 -2 -11 4 -11 6 0 8 -9 3 -22 -4 -13 -7
-60 -7 -105 0 -49 -4 -83 -10 -83 -5 0 -3 -5 5 -10 13 -9 13 -11 0 -20 -8 -5
-10 -10 -5 -10 6 0 10 -20 10 -45 0 -25 -4 -45 -8 -45 -5 0 -6 -4 -3 -9 3 -4
7 -112 8 -240 2 -127 7 -231 11 -231 5 0 5 -6 0 -12 -9 -14 -11 -68 -3 -68 3
0 5 -21 5 -47 0 -27 3 -60 7 -75 4 -19 3 -28 -5 -28 -8 0 -8 -3 -2 -8 6 -4 10
-25 9 -47 0 -22 3 -45 7 -50 5 -6 4 -17 -1 -25 -4 -7 -5 -23 0 -35 5 -12 9
-44 11 -71 1 -27 6 -54 11 -61 5 -6 5 -14 -1 -17 -6 -4 -6 -18 -1 -34 4 -16 8
-46 8 -68 1 -51 4 -67 17 -76 6 -5 5 -8 -4 -8 -11 0 -11 -3 -1 -15 10 -12 10
-15 -1 -15 -9 0 -10 -3 -4 -8 11 -7 17 -42 18 -99 0 -18 4 -33 8 -33 4 0 7
-10 6 -22 0 -47 7 -108 14 -108 9 0 6 -21 -5 -39 -7 -10 -6 -12 4 -6 10 6 12
3 8 -13 -4 -12 -2 -22 2 -22 5 0 8 -8 8 -17 0 -10 3 -40 7 -68 4 -27 8 -56 8
-62 0 -7 4 -13 8 -13 4 0 6 -9 4 -20 -2 -11 1 -22 7 -26 6 -4 5 -10 -3 -15
-11 -7 -11 -9 -1 -9 9 0 11 -7 7 -20 -3 -11 -2 -20 3 -20 5 0 8 -11 7 -25 -2
-14 2 -25 8 -25 8 0 7 -4 -2 -9 -11 -7 -10 -11 5 -20 11 -6 13 -11 6 -11 -8 0
-10 -5 -6 -12 10 -15 25 -85 27 -125 1 -18 5 -33 10 -33 4 0 7 -6 6 -12 -1 -7
0 -20 4 -28 7 -20 22 -94 26 -128 0 -8 6 -10 14 -6 9 6 9 5 0 -8 -7 -8 -10
-17 -8 -20 6 -6 16 -44 17 -65 1 -7 5 -13 9 -13 4 0 6 -9 4 -20 -2 -11 0 -20
4 -20 4 0 7 -14 6 -30 -1 -17 1 -28 3 -25 3 3 14 -25 24 -62 10 -38 19 -72 21
-78 1 -5 5 -14 8 -20 4 -5 5 -20 4 -33 -1 -12 2 -22 7 -22 4 0 7 -3 7 -7 -1
-5 0 -11 1 -15 3 -10 4 -12 20 -71 7 -26 16 -50 20 -52 5 -3 6 -14 3 -25 -3
-11 -1 -20 4 -20 5 0 10 -6 11 -12 2 -24 8 -43 21 -67 11 -19 11 -22 -1 -15
-10 6 -11 5 -1 -8 7 -8 10 -18 6 -21 -3 -4 -2 -7 4 -7 10 0 27 -51 26 -77 0
-7 3 -13 8 -13 4 0 6 -9 4 -20 -3 -13 0 -18 7 -14 7 5 9 0 6 -14 -4 -12 -2
-20 3 -16 5 3 9 -3 9 -13 0 -11 6 -25 13 -32 10 -11 9 -12 -3 -6 -11 6 -10 3
2 -12 10 -11 19 -32 20 -46 1 -15 6 -27 10 -27 4 0 8 -11 8 -24 0 -13 4 -26 9
-28 6 -1 12 -15 15 -29 2 -15 11 -40 20 -57 8 -16 12 -32 9 -36 -4 -3 -1 -6 5
-6 7 0 11 -3 11 -7 -1 -5 0 -10 1 -13 3 -9 11 -45 12 -57 1 -7 5 -10 9 -8 10
7 21 -43 13 -57 -4 -6 -3 -8 2 -5 6 3 16 -3 23 -15 7 -11 8 -17 3 -14 -6 3 0
-15 13 -41 13 -25 22 -50 20 -54 -3 -4 2 -9 10 -13 8 -3 12 -12 9 -21 -3 -8
-1 -15 5 -15 6 0 10 -3 9 -7 -1 -5 4 -21 10 -36 7 -16 12 -33 12 -38 0 -5 5
-9 11 -9 5 0 8 -4 4 -9 -3 -5 -1 -12 5 -16 6 -4 8 -11 5 -16 -4 -5 -2 -9 2 -9
5 0 17 -22 27 -50 10 -27 22 -50 28 -50 5 0 6 -5 3 -10 -3 -6 1 -17 9 -25 8
-9 13 -22 10 -30 -4 -8 -2 -15 3 -15 9 0 60 -101 54 -109 -1 -2 1 -7 6 -10 5
-3 24 -37 43 -76 19 -38 38 -72 43 -73 4 -2 5 -8 2 -13 -4 -5 3 -19 15 -31 11
-12 19 -27 17 -32 -2 -6 5 -19 15 -30 16 -18 23 -37 19 -58 0 -5 4 -7 10 -5 6
1 13 -7 15 -18 1 -11 8 -21 14 -23 5 -2 8 -8 4 -13 -3 -5 0 -9 7 -9 7 0 10 -3
7 -6 -4 -3 5 -22 18 -41 13 -19 21 -39 18 -44 -3 -5 -1 -9 5 -9 6 0 19 -18 29
-40 10 -22 21 -37 25 -34 4 4 7 -2 7 -14 0 -12 5 -22 10 -22 6 0 10 -9 10 -21
0 -11 5 -17 10 -14 6 3 10 -1 10 -10 0 -9 18 -43 40 -76 22 -33 40 -65 40 -70
0 -5 5 -9 11 -9 5 0 8 -4 4 -9 -3 -6 3 -14 12 -20 10 -6 14 -11 8 -11 -7 0 -7
-3 0 -8 13 -9 34 -42 41 -65 4 -9 10 -17 15 -17 5 0 9 -7 9 -15 0 -8 5 -15 10
-15 6 0 10 -6 10 -14 0 -7 11 -25 25 -40 14 -15 25 -34 25 -42 0 -7 5 -14 11
-14 5 0 7 -5 4 -10 -3 -6 1 -10 10 -10 9 0 14 -4 11 -9 -3 -5 5 -20 19 -35 13
-15 25 -29 25 -31 0 -3 0 -9 0 -15 0 -5 7 -10 16 -10 8 0 13 -4 10 -9 -3 -4 6
-21 19 -37 14 -16 25 -35 25 -41 0 -7 8 -13 18 -14 11 0 12 -2 4 -6 -9 -3 -7
-10 9 -24 12 -10 18 -19 13 -19 -5 0 2 -7 14 -16 12 -8 22 -21 22 -28 0 -8 10
-21 22 -30 13 -9 16 -14 8 -11 -8 4 -5 -2 7 -13 13 -11 23 -25 23 -31 0 -6 5
-11 10 -11 6 0 10 -7 10 -15 0 -8 3 -15 8 -15 4 0 18 -18 32 -39 13 -22 27
-38 31 -35 4 2 10 -4 14 -15 8 -26 41 -62 49 -54 4 4 4 0 0 -10 -4 -11 0 -19
10 -23 9 -3 13 -10 10 -15 -3 -5 2 -9 10 -9 9 0 16 -6 16 -13 0 -7 9 -20 20
-30 12 -10 18 -23 14 -29 -4 -6 -3 -9 2 -6 5 3 17 -3 27 -14 9 -10 15 -18 12
-18 -3 0 4 -11 17 -25 58 -63 68 -75 63 -75 -2 0 9 -14 27 -30 17 -17 27 -30
22 -30 -5 -1 2 -7 16 -15 14 -8 21 -14 16 -15 -6 0 0 -9 12 -20 12 -12 22 -25
22 -30 0 -6 7 -10 15 -10 8 0 15 -4 15 -9 0 -5 22 -33 50 -62 27 -28 47 -56
44 -60 -3 -5 2 -9 10 -9 9 0 16 -5 16 -11 0 -5 4 -7 10 -4 6 3 7 -1 4 -9 -4
-11 0 -16 10 -16 9 0 16 -6 16 -14 0 -8 9 -18 20 -21 11 -3 20 -11 20 -17 0
-5 24 -34 54 -63 30 -30 51 -56 48 -59 -5 -6 14 -10 31 -7 5 1 6 -3 2 -9 -3
-5 -1 -10 5 -10 6 0 8 -5 5 -10 -3 -6 -3 -10 2 -10 13 0 73 -55 73 -67 0 -6 9
-13 20 -16 11 -3 20 -12 20 -21 0 -9 4 -16 9 -16 6 0 42 -31 81 -70 39 -38 76
-70 81 -70 6 0 8 -3 6 -7 -2 -5 4 -16 15 -25 10 -10 18 -16 18 -14 0 4 75 -64
161 -145 21 -20 41 -34 44 -31 3 3 5 -2 5 -12 0 -9 4 -14 10 -11 5 3 10 2 10
-3 0 -5 11 -15 25 -22 13 -7 22 -17 19 -22 -3 -4 0 -8 6 -8 5 0 23 -12 39 -27
16 -16 39 -35 51 -43 12 -8 35 -27 50 -42 16 -16 33 -28 39 -28 6 0 11 -7 11
-15 0 -8 7 -15 15 -15 9 0 18 -7 22 -16 5 -13 7 -13 14 -2 7 10 9 10 9 -3 0
-9 11 -21 25 -27 14 -6 25 -16 25 -22 0 -5 6 -10 13 -10 6 0 26 -15 43 -32 17
-18 35 -34 41 -35 6 -1 26 -16 44 -33 19 -16 38 -30 44 -30 6 0 17 -9 25 -19
7 -11 18 -17 22 -14 5 3 12 -4 15 -16 3 -11 9 -18 14 -15 5 3 20 -5 33 -18 13
-13 30 -24 37 -26 8 -2 19 -8 24 -14 7 -8 6 -8 -4 -3 -9 5 -12 4 -7 -3 4 -7
16 -12 27 -12 10 0 19 -4 19 -10 0 -5 6 -10 14 -10 8 0 16 -3 18 -8 6 -15 105
-81 112 -75 3 3 6 1 6 -5 0 -6 14 -19 30 -27 17 -9 28 -20 25 -26 -4 -5 -3 -9
2 -8 15 4 63 -13 59 -20 -3 -4 15 -17 40 -30 24 -13 41 -28 38 -33 -3 -4 -2
-8 3 -7 22 4 43 -2 38 -11 -6 -9 8 -14 28 -11 4 0 7 -4 7 -9 0 -6 7 -10 15
-10 9 0 18 -7 21 -15 4 -8 10 -12 15 -9 5 3 9 0 9 -5 0 -6 6 -11 13 -11 7 0
22 -8 33 -17 11 -10 26 -19 34 -21 8 -2 17 -8 18 -13 2 -5 9 -9 15 -9 6 0 22
-10 35 -22 14 -13 22 -16 18 -8 -4 8 -1 7 8 -4 8 -10 19 -15 24 -12 6 3 13 -1
16 -10 4 -10 12 -14 23 -10 10 4 14 4 10 0 -9 -9 92 -74 115 -74 5 0 16 -6 23
-12 33 -30 42 -35 58 -32 9 1 17 -4 17 -12 0 -8 3 -13 8 -12 4 1 27 -9 52 -22
25 -13 49 -24 53 -25 4 0 12 -7 17 -15 5 -8 10 -11 10 -6 0 5 7 3 15 -4 8 -6
20 -8 26 -4 8 4 9 3 5 -4 -4 -7 -1 -12 8 -12 9 0 16 -4 16 -10 0 -5 3 -9 8 -8
13 3 82 -31 82 -41 0 -6 7 -8 16 -4 9 3 19 2 23 -3 11 -16 68 -44 75 -37 3 3
6 2 6 -3 0 -6 16 -16 35 -23 19 -7 35 -17 35 -22 0 -6 5 -7 12 -3 6 4 17 -1
25 -11 9 -14 13 -15 13 -4 0 9 3 10 8 3 10 -16 51 -36 60 -30 5 3 14 -4 22
-14 8 -10 18 -17 22 -14 5 3 14 1 21 -4 7 -5 29 -15 50 -21 20 -7 37 -17 37
-22 0 -6 5 -7 10 -4 6 3 10 2 10 -4 0 -6 7 -8 15 -5 8 4 17 -1 21 -9 3 -9 11
-14 19 -11 7 3 29 -4 49 -15 20 -12 43 -21 51 -21 8 0 15 -5 15 -11 0 -5 3 -8
8 -5 4 2 25 -4 47 -14 22 -10 43 -16 47 -14 5 3 8 0 8 -5 0 -6 9 -11 20 -11
11 0 20 -5 20 -11 0 -5 4 -8 8 -5 5 3 21 -2 37 -10 16 -8 34 -13 41 -10 7 3
14 0 16 -6 4 -10 23 -17 56 -20 6 -1 12 -6 12 -11 0 -5 7 -7 15 -3 8 3 15 1
15 -5 0 -6 4 -7 10 -4 5 3 10 1 10 -4 0 -6 3 -10 8 -9 12 3 97 -25 103 -35 3
-5 9 -8 13 -8 21 3 37 0 33 -6 -3 -5 7 -9 21 -9 38 -2 55 -7 70 -22 8 -7 18
-10 23 -6 6 3 16 0 24 -6 8 -7 15 -9 15 -5 0 4 6 2 13 -4 8 -6 17 -8 20 -4 4
3 7 1 7 -6 0 -7 4 -10 9 -7 5 3 25 -1 45 -9 20 -9 41 -13 46 -10 6 4 10 2 10
-3 0 -5 6 -9 13 -10 43 -5 76 -15 72 -22 -3 -4 5 -8 18 -8 36 0 62 -6 69 -16
3 -5 20 -9 37 -8 17 0 31 -4 31 -9 0 -5 13 -9 28 -9 15 0 33 -5 40 -12 9 -9
12 -9 12 2 0 11 2 12 8 3 8 -12 83 -35 115 -34 9 0 17 -4 17 -8 0 -4 17 -8 37
-9 21 -2 40 -8 44 -14 4 -6 12 -7 18 -3 7 4 19 1 28 -7 14 -11 16 -11 8 2 -7
12 -6 13 7 3 8 -7 18 -10 21 -6 4 3 7 2 7 -4 0 -10 11 -12 63 -14 15 0 27 -4
27 -9 0 -4 10 -8 23 -8 29 -1 60 -7 72 -13 6 -3 26 -6 45 -8 19 -1 37 -5 40
-10 3 -4 14 -7 25 -5 11 2 23 -2 27 -9 6 -9 8 -9 8 0 0 6 9 9 20 6 11 -3 17
-10 13 -17 -4 -6 1 -5 10 3 9 7 17 9 17 4 0 -5 10 -10 23 -10 12 -1 40 -5 62
-8 22 -4 48 -7 58 -8 9 -1 17 -4 17 -7 0 -3 16 -5 35 -5 20 1 38 -1 40 -5 2
-4 21 -7 41 -8 20 -1 42 -6 49 -12 9 -8 15 -8 20 0 4 6 12 7 24 1 10 -6 29
-10 42 -10 13 -1 34 -1 47 -1 12 0 22 -5 22 -11 0 -8 5 -7 15 1 9 7 15 8 15 2
0 -6 8 -9 18 -7 9 1 21 0 26 -3 6 -3 27 -5 48 -5 22 0 38 -4 38 -11 0 -6 5 -4
10 4 9 13 10 13 10 0 0 -13 1 -13 10 0 7 11 10 12 10 2 0 -9 7 -11 19 -7 11 3
22 1 26 -5 5 -8 11 -8 21 1 8 6 14 8 14 3 0 -5 21 -9 48 -8 26 0 51 -2 57 -4
9 -6 118 -14 193 -15 23 -1 42 -3 42 -6 0 -5 107 -10 328 -14 39 -1 72 -6 72
-11 0 -5 6 -4 13 1 6 5 23 8 37 6 64 -8 90 -8 90 0 0 4 8 3 18 -2 13 -7 23 -6
30 1 9 9 12 9 12 0 0 -10 5 -10 20 -2 14 8 20 8 20 0 0 -7 6 -8 19 0 14 7 22
7 26 0 5 -8 11 -8 20 0 9 8 15 8 20 0 4 -7 12 -7 26 0 13 8 19 7 19 0 0 -8 6
-8 20 0 11 6 20 7 20 3 0 -10 47 -10 56 0 4 3 15 2 25 -3 10 -6 20 -6 23 -1 3
5 30 8 61 7 30 -1 55 2 55 7 0 5 6 4 14 -2 8 -7 16 -8 19 -4 3 4 46 8 96 8 50
0 91 2 91 5 0 3 34 5 75 5 41 0 75 3 75 6 0 4 14 5 31 3 18 -2 28 0 24 6 -4 6
2 7 18 1 13 -5 29 -6 36 -2 7 5 26 7 42 5 17 -2 28 0 25 4 -2 4 15 7 37 6 23
-1 48 3 55 9 7 6 12 6 12 0 0 -11 29 -11 48 1 6 4 16 5 21 1 5 -3 13 0 17 6 4
8 9 7 15 -2 5 -8 9 -9 9 -4 0 6 12 10 28 10 15 -1 31 1 37 4 10 5 28 8 85 12
19 1 39 5 44 7 5 3 28 7 50 9 56 5 69 7 85 17 10 7 12 5 6 -3 -6 -10 -3 -11
12 -2 11 5 28 10 39 9 26 -1 48 5 56 17 5 6 8 5 8 -4 0 -9 4 -10 13 -4 6 6 20
11 30 11 9 1 28 2 42 3 14 1 25 7 25 13 0 6 5 4 10 -4 6 -10 10 -11 10 -2 0 7
14 12 38 12 21 0 42 3 45 7 4 3 19 8 33 9 15 2 34 6 43 9 9 4 35 9 59 11 23 2
51 8 62 14 11 6 24 8 29 5 5 -3 17 2 25 11 9 8 16 11 16 6 0 -11 18 -11 38 1
6 5 16 5 22 2 6 -3 10 -1 10 5 0 8 9 10 25 6 14 -4 25 -3 25 2 0 5 32 15 70
22 39 7 73 17 76 21 2 5 11 6 19 2 8 -3 15 -1 15 4 0 5 8 9 18 10 9 0 27 4 40
7 12 3 32 8 43 11 12 2 37 9 55 15 19 6 39 8 45 4 8 -5 9 -3 4 6 -6 10 -4 12
8 7 10 -4 17 -1 17 5 0 6 3 8 7 5 3 -4 13 -1 21 6 13 10 14 9 7 -3 -7 -12 -6
-13 6 -4 20 16 106 43 113 36 3 -3 6 1 6 9 0 11 2 11 10 -1 6 -9 10 -10 10 -3
0 10 55 29 73 25 4 -1 7 2 7 6 0 4 9 8 20 9 11 1 34 9 50 17 17 8 27 10 24 4
-4 -5 5 -2 20 7 14 9 33 15 41 11 9 -3 14 -2 10 3 -5 9 50 27 68 23 4 -1 7 3
7 10 0 6 3 9 6 5 4 -3 19 0 35 9 16 8 29 12 29 8 0 -4 7 -1 15 6 8 6 19 9 25
5 5 -3 10 -1 10 4 0 6 3 10 8 9 4 -1 18 3 32 9 26 12 49 20 63 22 4 0 21 8 37
16 17 9 30 12 30 8 0 -5 4 -2 8 4 4 7 17 14 27 16 11 2 28 7 37 11 9 4 22 5
27 1 7 -4 8 0 5 10 -5 11 -2 16 7 14 14 -2 24 1 89 29 19 8 41 16 49 18 8 1
17 6 20 11 6 8 26 13 62 16 10 1 15 7 11 16 -3 8 -1 12 5 8 5 -3 31 5 58 18
27 14 51 23 53 20 3 -3 11 3 19 13 9 10 12 11 7 2 -6 -11 -2 -10 13 3 11 9 23
14 26 10 4 -3 7 -1 7 6 0 7 4 10 9 7 5 -3 20 3 34 15 15 11 30 20 34 20 18 -1
43 11 43 20 0 6 5 7 11 4 6 -4 17 1 25 11 9 11 13 13 9 4 -6 -13 -5 -13 7 0 7
8 18 15 23 16 23 3 55 17 55 25 0 5 3 8 8 7 11 -3 126 55 140 72 12 13 13 13
6 0 -6 -11 -2 -10 13 3 11 9 22 15 25 12 3 -3 11 1 18 10 7 8 18 15 26 15 7 0
18 8 23 18 6 9 11 11 11 5 0 -7 18 -1 42 16 24 16 46 27 50 24 5 -2 11 3 14
11 3 9 10 14 14 11 4 -3 13 2 20 10 7 8 16 12 21 9 5 -3 9 0 9 6 0 6 4 9 9 6
5 -4 11 -3 13 1 1 5 18 19 37 32 19 13 30 18 25 10 -4 -7 5 -4 20 9 16 12 33
19 39 15 5 -3 7 -1 3 5 -3 6 3 14 16 18 12 3 31 15 42 25 11 11 25 18 30 16 5
-2 18 4 27 12 28 25 44 36 58 39 7 1 22 11 33 22 12 11 25 17 30 14 4 -3 11 2
14 10 3 9 10 13 15 10 5 -3 9 -1 9 5 0 5 9 13 20 16 11 3 26 13 34 20 8 8 20
16 27 17 7 2 20 10 30 18 41 35 49 40 49 33 0 -4 7 0 15 11 7 10 19 15 25 11
7 -4 14 2 17 14 3 11 9 19 13 16 4 -3 19 6 33 19 14 13 27 22 29 20 2 -2 17 8
32 21 16 14 33 22 39 18 5 -3 7 -2 4 4 -4 6 5 15 18 21 14 7 25 17 25 24 0 9
3 8 10 -2 8 -13 10 -12 10 3 0 9 7 17 15 17 8 0 15 5 15 12 0 6 3 9 6 6 3 -3
16 5 30 19 13 13 29 21 36 17 7 -4 8 -3 4 4 -4 7 -3 12 2 12 4 0 18 9 30 20
12 12 22 17 22 13 0 -4 7 2 15 13 8 10 15 15 15 10 0 -5 14 5 30 22 17 18 30
28 30 24 0 -4 7 2 15 12 8 11 15 16 15 11 0 -4 9 3 21 16 11 13 24 24 27 24 4
0 17 10 30 22 12 13 30 23 40 23 14 0 15 2 2 10 -13 9 -13 10 1 10 8 0 25 9
37 20 12 11 27 19 34 18 8 -2 12 5 10 16 -2 10 1 16 6 13 4 -4 15 2 24 11 26
29 56 51 62 45 3 -4 6 1 6 10 0 10 5 17 10 17 12 0 24 10 80 64 22 21 40 36
40 32 0 -3 18 12 40 34 22 22 43 40 47 40 3 0 29 24 56 52 28 29 46 46 42 38
-5 -8 23 17 61 56 38 38 74 71 79 73 6 2 9 7 8 11 -2 5 6 12 17 15 11 4 20 13
20 21 0 8 3 13 8 11 9 -3 58 46 55 55 -2 5 1 8 7 8 14 0 180 167 180 181 0 7
3 9 6 6 8 -8 44 31 44 46 0 6 3 8 6 4 7 -6 34 16 34 28 0 4 20 27 46 51 25 24
42 49 39 54 -4 6 1 7 12 3 10 -3 15 -2 11 2 -5 5 1 15 12 22 11 8 18 19 15 24
-4 5 0 9 8 9 7 0 20 11 27 25 7 13 17 22 22 19 4 -3 8 0 8 6 0 6 5 8 13 4 7
-5 7 -1 -3 12 -8 10 -11 16 -6 12 7 -6 46 25 46 38 0 10 28 34 40 34 6 0 9 4
5 9 -3 6 3 14 12 20 10 6 14 11 10 11 -4 0 3 11 17 25 13 13 37 42 53 62 15
21 37 46 48 55 11 10 17 17 13 18 -4 0 8 16 27 36 19 20 32 41 28 46 -3 6 -1
8 5 4 5 -3 20 10 32 29 12 19 26 35 31 35 5 0 9 7 9 15 0 8 5 15 10 15 6 0 10
7 10 15 0 8 7 15 16 15 10 0 14 6 10 15 -3 9 0 15 10 15 8 0 12 5 9 10 -3 6 1
13 9 16 9 3 16 12 16 20 0 8 7 14 16 14 8 0 12 4 9 10 -3 5 8 24 25 41 16 18
30 37 30 44 0 6 11 22 25 35 14 13 25 30 25 37 0 8 5 11 11 7 7 -4 10 -1 7 7
-2 7 7 24 20 36 14 13 22 23 18 23 -7 0 4 15 42 55 13 14 20 25 17 25 -8 0 55
93 69 102 7 5 7 8 1 8 -5 0 -1 7 9 15 11 8 16 15 12 15 -4 0 0 7 8 16 9 8 16
22 16 30 0 8 5 12 10 9 6 -3 10 1 10 9 0 8 7 21 15 29 8 8 16 21 17 28 2 8 13
24 25 35 12 12 19 24 16 27 -5 6 31 58 38 54 2 -1 3 0 1 2 -1 3 5 15 13 28 9
13 13 23 10 23 -4 0 0 7 7 15 31 34 36 43 31 49 -4 3 -1 6 5 6 7 0 11 3 10 8
-3 15 15 42 25 35 6 -3 7 -1 3 5 -3 6 4 21 16 33 13 12 18 19 11 15 -8 -4 -8
0 0 18 7 13 16 22 21 19 5 -4 7 1 3 10 -4 11 -1 17 8 17 8 0 12 6 9 13 -2 7 6
25 20 40 14 15 21 27 15 27 -5 0 -1 10 10 22 11 11 18 25 15 30 -3 4 2 11 10
14 9 3 14 10 11 14 -3 5 3 13 12 19 11 6 13 11 5 11 -11 0 -11 3 0 15 30 33
37 43 31 48 -3 4 2 13 11 22 9 9 16 23 16 31 0 8 9 24 20 36 10 12 17 24 15
29 -3 4 2 14 10 23 9 8 16 18 15 21 -1 21 1 25 10 20 6 -4 10 -3 9 2 -4 15 13
63 22 63 5 0 6 6 3 14 -3 7 2 16 11 20 9 3 13 11 9 17 -4 7 1 18 10 25 10 7
17 15 17 18 -2 19 33 85 42 79 5 -3 7 -1 3 5 -3 6 -2 21 3 34 5 12 9 27 9 31
0 5 8 14 18 21 9 7 14 18 10 24 -4 7 -2 12 4 12 6 0 8 5 5 10 -3 6 -1 10 5 10
6 0 8 5 5 10 -3 6 -2 10 4 10 6 0 8 7 5 15 -4 8 1 17 9 21 9 3 13 12 10 20 -3
8 0 14 7 14 6 0 9 4 5 9 -3 5 0 15 7 23 7 7 15 22 16 33 2 11 7 22 10 25 8 5
14 28 15 48 0 6 4 12 9 12 4 0 8 4 8 9 0 5 5 22 11 38 6 15 10 29 10 30 0 2 8
19 19 39 12 21 15 33 8 29 -7 -4 -6 -1 2 7 9 7 16 22 16 33 0 11 5 19 11 18 7
-2 10 6 8 17 -2 11 0 20 5 20 5 0 7 7 4 15 -4 8 -1 15 4 15 6 0 9 9 7 20 -2
11 0 18 6 15 5 -4 10 -1 10 4 1 6 2 14 3 19 1 4 6 22 10 39 4 18 12 33 16 33
5 0 6 7 3 17 -5 12 -3 14 7 8 9 -5 11 -4 6 4 -4 6 -2 19 6 28 11 14 11 16 -2
9 -8 -4 -6 0 4 8 15 12 16 16 5 16 -11 0 -11 2 -1 9 7 4 14 18 15 29 1 12 5
22 10 22 5 0 7 7 3 15 -3 8 -2 15 3 15 7 0 24 55 19 63 -1 1 5 13 12 27 8 14
15 30 16 35 0 6 2 12 3 15 4 8 12 44 13 58 1 6 5 12 9 12 5 0 6 7 3 15 -4 8
-1 15 7 15 7 0 10 3 6 6 -3 3 -1 18 5 33 5 14 12 37 15 51 7 37 9 43 22 74 6
15 12 39 13 52 1 13 7 24 12 24 5 0 6 3 3 7 -4 3 -2 12 4 20 9 10 8 13 -2 13
-11 0 -11 2 1 10 8 5 11 10 6 10 -5 0 -1 10 10 21 12 14 15 23 8 26 -9 3 -8
12 3 33 8 17 12 34 8 40 -3 5 -1 10 6 10 7 0 10 3 6 6 -3 4 0 21 8 39 7 19 11
36 8 39 -3 3 -2 13 2 23 5 10 7 21 7 26 -1 4 2 7 7 7 4 0 7 11 6 25 -2 14 0
25 3 25 4 0 8 10 9 23 3 33 8 51 16 65 5 7 3 12 -3 12 -7 0 -5 7 4 16 19 19
21 28 3 18 -9 -6 -9 -5 0 7 7 9 13 30 15 47 1 18 7 32 13 32 5 0 4 4 -4 9 -9
6 -10 11 -2 15 6 4 9 11 6 16 -3 5 -1 11 5 15 6 4 8 11 4 16 -3 5 0 17 8 26
11 14 11 16 -1 8 -11 -6 -12 -5 -5 6 9 15 12 25 19 73 2 15 9 34 15 41 8 9 8
15 0 20 -7 4 -7 12 0 26 6 10 8 19 4 19 -3 0 0 8 7 17 12 15 12 16 -1 8 -12
-7 -13 -6 -4 6 6 8 12 21 12 29 1 8 4 35 8 60 4 25 7 55 8 68 0 12 3 22 6 22
3 0 6 15 7 33 1 17 4 46 8 62 4 17 7 38 8 47 1 10 5 18 9 18 4 0 3 11 -2 25
-6 15 -6 27 0 30 5 3 6 13 3 22 -4 9 -2 14 3 11 5 -4 8 12 8 35 -1 23 4 45 10
49 8 5 7 8 -2 8 -9 0 -10 6 -5 18 5 9 8 34 8 54 0 21 3 38 6 38 3 0 5 23 5 50
-1 28 2 50 7 50 5 0 5 9 2 20 -4 12 -2 27 5 35 7 9 8 15 0 20 -7 4 -7 12 0 26
8 14 7 19 -1 19 -8 0 -6 7 5 19 10 11 13 22 8 25 -11 7 -11 24 1 44 5 7 3 12
-4 12 -8 0 -8 4 -2 13 6 6 9 33 8 59 -1 30 2 45 8 41 6 -4 7 -1 2 7 -10 16
-13 60 -5 60 3 0 5 39 5 88 0 48 3 100 7 116 5 20 4 33 -5 38 -9 6 -9 8 2 8
10 0 11 3 2 13 -6 8 -8 16 -5 19 11 11 14 57 4 63 -8 5 -7 11 1 21 9 11 8 18
-2 31 -8 9 -9 14 -2 10 8 -5 11 46 9 208 -1 118 -5 218 -9 221 -4 4 -2 13 4
20 7 8 7 14 -1 19 -7 4 -7 12 0 26 6 10 7 19 3 19 -5 0 -9 28 -10 63 -3 130
-8 196 -15 202 -4 4 -3 16 3 26 7 14 6 19 -2 19 -8 0 -9 4 0 13 6 8 7 17 3 21
-4 4 -8 24 -8 44 -2 50 -11 98 -20 113 -4 8 -3 10 4 5 7 -4 12 -3 12 3 0 5 -5
13 -10 16 -7 4 -6 13 1 26 7 13 7 25 1 32 -5 7 -10 24 -11 40 -2 50 -4 57 -14
57 -5 0 -4 6 2 14 9 10 9 16 1 21 -8 5 -7 11 2 23 10 12 10 14 1 8 -10 -5 -13
4 -13 33 0 23 1 42 2 44 1 1 -4 12 -10 24 -8 15 -9 24 -2 28 7 5 8 11 1 19 -5
6 -11 31 -12 54 -2 23 -6 42 -11 42 -4 0 -3 12 2 26 6 15 6 23 1 19 -6 -3 -10
3 -10 12 0 23 -5 45 -14 60 -4 6 -3 14 3 18 7 4 7 12 0 24 -5 11 -10 34 -12
52 -1 19 -6 40 -12 48 -9 12 -8 13 4 6 12 -6 13 -5 3 6 -7 7 -13 26 -13 42 0
15 -5 37 -10 48 -8 14 -7 19 2 19 9 0 10 3 2 8 -6 4 -12 14 -13 22 -4 39 -10
75 -11 75 -4 0 -12 42 -12 63 0 12 -4 22 -10 22 -5 0 -7 4 -3 9 3 5 0 13 -6
17 -8 4 -8 8 0 13 7 5 6 15 -4 34 -8 15 -10 25 -5 22 5 -3 3 6 -4 20 -7 14
-12 36 -10 50 1 14 -2 25 -8 25 -6 0 -8 11 -6 25 3 14 1 25 -4 25 -6 0 -8 6
-5 14 3 8 2 16 -3 18 -5 2 -10 18 -12 36 -1 19 -6 36 -10 38 -4 3 -5 11 -1 19
3 8 1 15 -5 15 -6 0 -8 9 -5 20 3 11 1 20 -4 20 -5 0 -10 6 -10 13 0 6 -4 21
-9 31 -6 15 -4 17 7 11 8 -5 7 -1 -3 12 -20 21 -24 38 -8 28 6 -3 1 10 -11 29
-15 27 -17 36 -7 36 11 0 11 2 0 9 -8 5 -15 20 -15 35 -1 14 -6 26 -11 26 -4
0 -6 7 -2 15 3 8 1 15 -4 15 -5 0 -7 7 -4 15 4 9 -1 18 -11 21 -11 5 -13 9 -5
14 8 5 7 12 -5 24 -9 9 -12 16 -6 16 8 0 8 6 1 20 -5 11 -14 29 -20 39 -6 14
-6 21 3 24 9 4 9 6 0 6 -7 1 -13 10 -13 21 0 11 -4 20 -9 20 -6 0 -8 9 -6 20
2 11 -1 22 -6 25 -5 4 -7 11 -4 16 4 5 1 9 -5 9 -6 0 -9 4 -5 9 3 5 1 12 -4
16 -5 3 -8 14 -6 25 2 11 0 20 -6 20 -5 0 -9 9 -9 20 0 11 -4 20 -9 20 -6 0
-8 9 -6 20 2 11 0 20 -5 20 -5 0 -7 6 -4 14 3 8 0 17 -5 21 -6 3 -9 11 -6 16
4 5 1 9 -5 9 -6 0 -8 5 -5 10 3 6 2 10 -3 10 -5 0 -9 6 -10 13 -1 25 -12 59
-27 89 -8 17 -15 37 -15 45 0 7 -4 13 -9 13 -6 0 -8 9 -6 19 2 11 -3 25 -11
32 -8 6 -14 22 -14 35 0 13 -5 24 -11 24 -5 0 -7 5 -4 10 4 6 1 17 -5 25 -7 8
-10 22 -6 30 3 9 2 14 -2 11 -11 -7 -44 62 -37 75 4 5 -1 12 -9 15 -9 3 -14
10 -11 14 2 4 -6 29 -20 55 -13 27 -22 52 -19 57 3 4 0 8 -7 8 -7 0 -9 3 -6 7
4 3 -2 20 -13 38 -11 18 -17 35 -13 38 3 4 1 7 -6 7 -7 0 -10 4 -7 9 3 5 -1
14 -9 21 -8 7 -15 23 -15 36 0 13 -8 28 -17 33 -14 8 -15 11 -3 11 10 1 9 4
-5 10 -11 5 -14 9 -7 9 10 1 9 5 -3 17 -9 9 -14 23 -11 31 3 8 1 11 -4 8 -9
-6 -14 8 -11 28 0 4 -4 7 -10 7 -5 0 -7 5 -4 10 3 6 0 13 -9 16 -8 3 -12 12
-9 20 3 7 -3 17 -12 20 -13 5 -14 9 -3 15 10 7 10 9 1 9 -7 0 -13 7 -13 15 0
8 -5 15 -11 15 -5 0 -8 4 -4 9 3 5 1 12 -5 16 -6 4 -7 11 -4 17 4 7 2 8 -4 4
-7 -4 -13 -2 -13 3 -1 6 -2 15 -3 19 -2 15 -41 87 -49 90 -4 2 -5 7 -2 12 3 5
-2 15 -11 24 -8 9 -12 20 -9 26 3 6 0 13 -8 15 -7 3 -20 21 -27 40 -8 19 -17
35 -22 35 -4 0 -7 3 -7 8 4 23 -3 42 -15 42 -8 0 -13 8 -12 18 2 9 -4 24 -14
32 -9 8 -22 31 -30 50 -7 19 -20 43 -28 53 -8 9 -11 17 -7 17 4 0 -2 9 -14 19
-14 12 -20 25 -15 32 4 8 3 9 -4 5 -8 -5 -12 0 -12 13 0 12 -5 21 -11 21 -5 0
-7 5 -4 10 3 6 2 10 -4 10 -5 0 -13 9 -16 20 -3 11 -12 26 -18 32 -7 7 -23 34
-36 61 -13 26 -28 47 -33 47 -4 0 -8 7 -8 15 0 8 -5 15 -11 15 -5 0 -7 5 -4
10 3 6 1 10 -5 10 -6 0 -8 5 -5 10 3 6 1 10 -4 10 -6 0 -11 7 -11 15 0 8 -4
15 -10 15 -5 0 -10 7 -10 15 0 8 -4 15 -10 15 -5 0 -10 5 -10 12 0 7 -12 25
-27 42 -16 17 -21 26 -13 21 9 -6 7 -2 -3 8 -14 12 -15 17 -6 18 8 0 4 4 -8 9
-13 6 -23 18 -23 30 0 11 -4 20 -9 20 -5 0 -21 20 -35 45 -15 25 -31 45 -36
45 -5 0 -6 7 -3 17 4 11 3 14 -5 9 -7 -4 -12 -1 -12 8 0 9 -4 16 -10 16 -5 0
-10 7 -10 15 0 8 -4 15 -10 15 -5 0 -10 5 -10 11 0 11 -60 92 -72 97 -5 2 -8
10 -8 18 0 8 -5 14 -12 14 -6 0 -9 3 -5 6 3 4 -4 15 -16 25 -12 10 -18 18 -13
19 5 0 0 8 -10 18 -11 9 -30 34 -44 54 -14 21 -28 38 -32 38 -5 0 -8 6 -8 14
0 8 -7 17 -16 20 -8 3 -12 10 -9 16 3 5 -1 10 -10 10 -9 0 -13 5 -10 10 3 6 1
10 -5 10 -6 0 -9 4 -6 8 3 5 -6 15 -19 22 -13 7 -22 16 -20 20 4 6 -24 42 -70
91 -8 9 -15 19 -15 23 0 7 -5 13 -78 92 -20 22 -43 52 -51 67 -8 14 -18 24
-22 22 -4 -3 -10 4 -14 15 -3 11 -11 20 -16 20 -6 0 -7 5 -3 12 4 7 3 8 -4 4
-6 -4 -16 4 -23 16 -7 13 -25 34 -40 47 -16 13 -26 27 -23 32 3 5 -2 9 -10 9
-9 0 -16 6 -16 13 0 7 -9 18 -20 25 -11 7 -20 19 -20 27 0 8 -5 15 -11 15 -13
0 -49 38 -49 52 0 5 -4 6 -10 3 -5 -3 -10 1 -10 9 0 9 -7 16 -15 16 -8 0 -14
6 -13 13 2 6 -3 11 -10 9 -6 -1 -11 2 -10 7 2 5 -12 23 -30 40 -18 18 -30 36
-27 42 4 5 3 8 -2 7 -14 -4 -54 23 -48 33 4 5 -1 9 -9 9 -8 0 -18 9 -21 20 -3
11 -13 20 -21 20 -8 0 -12 5 -9 10 3 6 -1 10 -9 10 -8 0 -18 5 -22 12 -5 7 -3
8 7 3 8 -5 1 4 -14 18 -15 15 -30 27 -32 27 -10 0 -52 49 -47 54 3 3 -2 6 -12
6 -9 0 -14 5 -11 10 3 6 1 10 -5 10 -15 0 -41 26 -33 34 4 3 -3 6 -15 6 -12 0
-21 6 -20 13 2 6 -3 11 -10 9 -6 -1 -11 1 -11 5 4 22 -3 32 -16 27 -9 -4 -15
0 -15 10 0 9 -7 16 -16 16 -8 0 -13 4 -9 9 3 5 -4 12 -15 16 -11 3 -20 13 -20
21 0 8 -4 13 -9 9 -6 -3 -15 4 -21 15 -6 11 -15 18 -21 15 -5 -4 -9 1 -9 9 0
8 -9 18 -20 21 -11 4 -17 11 -14 17 5 8 1 9 -10 5 -11 -4 -15 -3 -11 4 4 6 -2
13 -14 16 -11 3 -18 9 -15 14 3 5 -2 9 -10 9 -8 0 -18 9 -21 20 -4 11 -10 18
-14 16 -10 -7 -41 31 -33 40 4 4 2 4 -5 0 -6 -3 -14 -2 -18 4 -4 6 -12 7 -18
4 -7 -4 -9 -4 -5 1 8 9 -9 28 -34 38 -10 3 -18 14 -18 23 0 10 -3 14 -7 11 -3
-4 -17 6 -31 21 -14 15 -27 26 -29 25 -9 -8 -23 -2 -18 7 3 6 -1 10 -10 10 -9
0 -13 5 -10 10 3 6 -1 10 -10 10 -8 0 -18 7 -21 15 -4 8 -12 15 -19 15 -7 0
-20 11 -31 24 -10 14 -21 23 -26 20 -4 -3 -8 0 -8 7 0 7 -3 9 -6 6 -4 -3 -16
5 -26 19 -11 14 -23 23 -26 20 -3 -3 -11 3 -19 14 -8 11 -21 20 -29 20 -8 0
-12 5 -9 10 6 9 -8 14 -20 8 -2 -2 -12 7 -20 20 -9 12 -23 22 -31 22 -8 0 -12
5 -9 10 6 9 -8 14 -20 8 -2 -2 -12 7 -20 20 -9 12 -23 22 -31 22 -8 0 -14 4
-14 8 0 4 -18 19 -40 32 -22 14 -40 28 -40 33 0 4 -4 7 -10 7 -9 0 -35 19 -65
48 -8 6 -18 12 -24 12 -6 0 -11 5 -11 11 0 5 -4 8 -9 4 -5 -3 -12 -1 -16 5 -4
6 -11 7 -17 4 -6 -4 -8 -2 -5 3 4 6 0 16 -8 23 -8 7 -15 9 -15 4 0 -5 -6 -2
-13 6 -7 8 -24 21 -39 29 -15 8 -24 19 -21 25 3 6 3 8 -2 4 -4 -4 -32 8 -61
27 -30 19 -59 35 -64 35 -5 0 -15 9 -23 20 -8 11 -16 18 -19 15 -3 -3 -16 5
-30 18 -14 13 -30 21 -36 19 -7 -2 -15 3 -18 12 -3 9 -12 16 -19 16 -7 0 -18
7 -25 15 -7 9 -19 14 -27 11 -7 -3 -13 1 -13 9 0 7 -5 17 -12 21 -7 4 -8 3 -4
-4 4 -7 2 -12 -3 -12 -6 0 -11 7 -11 16 0 8 -4 12 -10 9 -5 -3 -10 -1 -10 5 0
6 -4 9 -9 5 -5 -3 -16 2 -24 10 -9 8 -20 15 -26 15 -6 0 -11 5 -11 11 0 5 -4
8 -9 5 -5 -3 -14 1 -21 9 -7 8 -18 15 -25 15 -8 0 -15 3 -17 8 -2 4 -28 20
-58 36 -30 16 -61 36 -68 45 -7 9 -11 10 -7 4 9 -18 -12 -16 -22 1 -4 8 -15
16 -23 18 -8 2 -21 10 -28 18 -12 13 -12 13 -6 0 5 -8 -4 -5 -20 8 -16 12 -35
22 -43 22 -7 0 -16 6 -19 14 -3 8 -12 12 -20 9 -7 -3 -16 2 -20 10 -3 9 -12
13 -21 10 -11 -4 -14 -2 -9 5 5 8 0 12 -14 12 -12 0 -34 8 -48 19 -15 10 -44
25 -66 32 -21 8 -41 19 -43 26 -3 6 -14 10 -25 8 -11 -3 -18 -1 -14 2 8 8 -66
43 -76 37 -5 -3 -8 0 -8 5 0 6 -7 11 -15 11 -8 0 -15 5 -15 10 0 6 -9 10 -20
10 -11 0 -20 5 -20 12 0 6 -3 8 -6 5 -4 -3 -16 -1 -28 5 -11 7 -23 13 -26 14
-18 4 -48 19 -64 33 -11 9 -16 11 -13 4 4 -6 -13 -1 -37 12 -24 13 -47 21 -50
18 -3 -4 -6 -1 -6 6 0 7 -4 9 -10 6 -5 -3 -10 -1 -10 4 0 6 -3 10 -7 9 -15 -3
-63 14 -59 21 3 4 -7 8 -22 9 -14 1 -29 8 -34 15 -4 6 -8 8 -8 3 0 -5 -6 -3
-13 3 -8 6 -17 8 -20 4 -4 -3 -7 -1 -7 5 0 7 -11 12 -24 12 -13 0 -26 5 -28
11 -2 6 -16 12 -30 12 -15 0 -29 6 -32 13 -3 8 -12 11 -21 8 -8 -3 -15 -1 -15
6 0 6 -3 9 -8 6 -4 -2 -25 4 -47 14 -22 11 -46 19 -52 20 -7 0 -13 6 -13 13 0
8 -4 7 -10 -3 -8 -12 -10 -12 -10 -1 0 8 -3 12 -6 9 -3 -4 -25 3 -50 13 -24
11 -48 18 -53 15 -5 -3 -12 1 -15 10 -4 9 -9 14 -13 11 -3 -3 -22 1 -42 9 -37
16 -67 25 -88 26 -7 1 -13 6 -13 11 0 5 -7 7 -15 3 -8 -3 -15 -2 -15 2 0 4
-12 9 -26 10 -15 1 -32 7 -39 12 -7 5 -24 11 -39 12 -14 1 -26 6 -26 11 0 5
-9 7 -20 4 -10 -3 -20 -1 -22 4 -3 8 -16 13 -65 23 -7 1 -16 5 -19 9 -4 4 -17
7 -29 7 -11 0 -27 6 -34 13 -10 9 -12 9 -7 0 5 -8 -2 -8 -20 2 -15 8 -31 12
-36 9 -4 -3 -8 -1 -8 4 0 6 -13 9 -30 8 -16 -1 -31 3 -34 9 -2 6 -18 12 -36
13 -18 1 -40 7 -50 12 -10 6 -30 10 -44 10 -14 0 -27 4 -31 9 -3 6 -13 10 -23
10 -44 2 -62 6 -62 13 0 4 -8 7 -17 7 -29 1 -58 6 -69 14 -6 3 -27 7 -47 9
-21 1 -37 5 -37 8 0 3 -10 7 -22 8 -38 4 -52 7 -65 15 -7 5 -13 5 -13 1 0 -3
-8 0 -17 7 -9 8 -14 9 -10 2 5 -7 0 -9 -13 -6 -11 3 -17 10 -13 17 4 8 2 7 -7
-1 -12 -11 -44 -7 -36 6 2 3 -13 5 -35 3 -21 -2 -39 0 -39 6 0 5 -8 9 -17 9
-59 0 -74 4 -67 16 5 7 0 6 -11 -3 -20 -17 -25 -17 -34 -1 -4 5 -26 11 -49 12
-23 2 -42 7 -42 12 0 5 -6 4 -14 -2 -10 -8 -16 -9 -21 -1 -3 5 -22 10 -41 10
-19 0 -34 3 -34 8 0 4 -19 8 -43 9 -23 1 -53 4 -67 8 -14 4 -35 7 -48 6 -13 0
-32 4 -43 9 -14 8 -19 7 -19 -1 0 -7 -5 -8 -12 -3 -7 5 -25 9 -40 8 -16 0 -28
2 -28 6 0 4 -18 6 -40 6 -22 -1 -40 3 -40 9 0 5 -5 3 -10 -5 -5 -8 -10 -10
-10 -4 0 6 -11 10 -25 9 -14 -2 -25 1 -25 7 0 6 -6 5 -15 -2 -9 -8 -15 -9 -15
-2 0 6 -12 10 -27 8 -16 -1 -34 2 -40 7 -9 6 -13 5 -13 -2 0 -7 -5 -9 -11 -5
-6 4 -31 8 -55 9 -24 1 -47 5 -51 8 -11 11 -25 8 -17 -4 4 -7 -1 -7 -16 1 -12
6 -42 10 -66 8 -24 -2 -44 -1 -44 2 0 3 -20 5 -45 5 -25 -1 -45 2 -45 7 0 5
-9 4 -20 -2 -14 -8 -20 -8 -20 0 0 8 -6 8 -20 0 -11 -6 -20 -7 -20 -3 0 8 -33
10 -257 14 -82 2 -130 6 -126 12 4 6 1 7 -8 2 -19 -12 -179 -13 -172 -1 4 5 1
6 -6 2 -21 -13 -65 -14 -80 -2 -11 8 -13 8 -8 0z"/>
</g>
</svg>
